<?xml version="1.0" standalone="no"?>
<!DOCTYPE svg PUBLIC "-//W3C//DTD SVG 20010904//EN"
 "http://www.w3.org/TR/2001/REC-SVG-20010904/DTD/svg10.dtd">
<svg version="1.0" xmlns="http://www.w3.org/2000/svg"
 width="1000.000000pt" height="1000.000000pt" viewBox="0 0 1000.000000 1000.000000"
 preserveAspectRatio="xMidYMid meet">

<g transform="translate(0.000000,1000.000000) scale(0.100000,-0.100000)"
fill="#000000" stroke="none">
<path d="M4295 8784 c-385 -223 -729 -420 -765 -438 -86 -43 -470 -265 -493
-284 -16 -14 -17 -125 -15 -2116 l3 -2100 285 -168 c157 -92 292 -167 300
-168 23 0 475 254 475 268 0 7 -126 88 -280 180 l-280 167 0 924 0 924 725
420 c399 231 734 422 746 424 14 3 245 -125 752 -418 l732 -423 0 -402 c0
-222 4 -405 9 -408 7 -4 207 106 436 241 l50 29 3 1307 2 1307 -37 24 c-77 49
-1931 1116 -1939 1116 -5 -1 -324 -183 -709 -406z m1442 -584 c401 -232 731
-424 736 -429 4 -4 6 -280 5 -614 l-3 -606 -735 424 -734 424 -51 -28 c-27
-16 -362 -209 -742 -429 l-693 -400 0 611 0 612 738 427 c405 235 740 427 744
427 4 1 335 -188 735 -419z"/>
<path d="M7482 7474 l3 -278 328 -190 327 -189 0 -651 0 -651 -1310 -755
c-721 -415 -1878 -1082 -2572 -1482 -695 -401 -1269 -728 -1277 -728 -8 0
-261 142 -563 316 l-548 317 0 1817 0 1817 308 178 c169 97 315 184 325 193
15 14 17 40 17 284 0 240 -2 268 -16 268 -15 0 -1039 -585 -1107 -632 l-27
-19 0 -2090 0 -2089 38 -24 c41 -27 1492 -865 1541 -890 39 -21 -16 -50 691
359 316 183 918 530 1337 771 1882 1084 3261 1879 3451 1989 l207 120 3 927 2
927 -27 19 c-52 35 -1094 634 -1114 639 -19 5 -19 -2 -17 -273z"/>
<path d="M7337 3922 c-702 -405 -1858 -1072 -2568 -1481 -709 -409 -1288 -749
-1286 -755 5 -17 460 -277 477 -273 8 2 533 303 1167 668 634 365 1664 959
2289 1319 625 360 1157 667 1181 682 l43 28 0 275 c0 214 -3 275 -12 275 -7
-1 -588 -333 -1291 -738z"/>
<path d="M5560 1694 c-593 -345 -1006 -590 -1014 -603 -9 -14 18 -32 243 -161
l213 -123 32 16 c91 46 1530 885 1534 895 4 12 -443 282 -467 281 -9 0 -252
-138 -541 -305z"/>
</g>
</svg>
